<svg width="44" height="44" viewBox="0 0 44 44" fill="none" xmlns="http://www.w3.org/2000/svg">
<path d="M44 22C44 34.1503 34.1503 44 22 44C9.84974 44 0 34.1503 0 22C0 9.84974 9.84974 0 22 0C34.1503 0 44 9.84974 44 22Z" fill="#268700"/>
<path fill-rule="evenodd" clip-rule="evenodd" d="M10.4244 17.0091C10.5748 10.7872 15.6997 5.78955 21.9998 5.78955C28.3949 5.78955 33.5789 10.9385 33.5789 17.2904C33.5789 23.6419 28.3949 28.7909 21.9998 28.7909C20.124 28.7909 18.3523 28.3478 16.7852 27.5613V38.2106C12.0903 38.0297 10.5254 31.9264 10.4211 28.1764V17.2904V17.0044L10.4244 17.0091ZM14.9265 17.2904C14.9265 21.1707 18.0935 24.3159 21.9998 24.3159C25.9065 24.3159 29.0732 21.1703 29.0732 17.2904C29.0732 13.4097 25.9065 10.2649 21.9998 10.2649C18.0931 10.2649 14.9265 13.4101 14.9265 17.2904Z" fill="white"/>
</svg>
